<?xml version="1.0" standalone="no"?>
<!DOCTYPE svg PUBLIC "-//W3C//DTD SVG 20010904//EN"
 "http://www.w3.org/TR/2001/REC-SVG-20010904/DTD/svg10.dtd">
<svg version="1.0" xmlns="http://www.w3.org/2000/svg"
 width="200.000000pt" height="200.000000pt" viewBox="0 0 200.000000 200.000000"
 preserveAspectRatio="xMidYMid meet">
<metadata>
Created by potrace 1.14, written by Peter Selinger 2001-2017
</metadata>
<g transform="translate(0.000000,200.000000) scale(0.100000,-0.100000)"
fill="#000000" stroke="none">
<path d="M181 1922 c-42 -4 -71 -23 -93 -59 -15 -26 -16 -100 -15 -873 2 -918
-1 -869 58 -904 25 -15 110 -16 877 -16 l849 0 31 31 c18 18 33 44 36 67 4 20
6 402 5 847 -2 880 0 854 -57 891 -24 15 -92 17 -841 18 -449 1 -831 0 -850
-2z"/>
</g>
</svg>
