<?xml version="1.0" standalone="no"?>
<!DOCTYPE svg PUBLIC "-//W3C//DTD SVG 20010904//EN"
 "http://www.w3.org/TR/2001/REC-SVG-20010904/DTD/svg10.dtd">
<svg version="1.0" xmlns="http://www.w3.org/2000/svg"
 width="200.000000pt" height="200.000000pt" viewBox="0 0 200.000000 200.000000"
 preserveAspectRatio="xMidYMid meet">
<metadata>
Created by potrace 1.14, written by Peter Selinger 2001-2017
</metadata>
<g transform="translate(0.000000,200.000000) scale(0.100000,-0.100000)"
fill="#000000" stroke="none">
<path d="M905 1878 c-265 -24 -516 -168 -671 -385 -68 -94 -125 -228 -149
-348 -4 -16 -8 -75 -10 -130 -9 -276 107 -521 340 -716 90 -75 249 -148 393
-179 125 -27 324 -22 442 13 171 50 288 117 404 231 106 104 121 124 172 220
70 132 96 237 98 391 0 72 -2 146 -6 165 -4 19 -10 44 -12 55 -18 83 -87 231
-146 309 -82 111 -198 209 -320 271 -98 49 -102 51 -190 74 -130 34 -211 41
-345 29z"/>
</g>
</svg>
